<mxfile host="app.diagrams.net" modified="2022-10-20T02:53:42.498Z" agent="5.0 (Windows NT 10.0; Win64; x64) AppleWebKit/537.36 (KHTML, like Gecko) Chrome/106.0.0.0 Safari/537.36" etag="SXjqeMZeCUQTHrdXGN14" version="20.4.1" type="github">
  <diagram id="C5RBs43oDa-KdzZeNtuy" name="Page-1">
    <mxGraphModel dx="1422" dy="1963" grid="1" gridSize="10" guides="1" tooltips="1" connect="1" arrows="1" fold="1" page="1" pageScale="1" pageWidth="827" pageHeight="1169" math="0" shadow="0">
      <root>
        <mxCell id="WIyWlLk6GJQsqaUBKTNV-0" />
        <mxCell id="WIyWlLk6GJQsqaUBKTNV-1" parent="WIyWlLk6GJQsqaUBKTNV-0" />
        <mxCell id="dWCcsPuOAeTFLZfHOErr-5" value="" style="edgeStyle=orthogonalEdgeStyle;rounded=0;orthogonalLoop=1;jettySize=auto;html=1;" edge="1" parent="WIyWlLk6GJQsqaUBKTNV-1" source="dWCcsPuOAeTFLZfHOErr-1" target="dWCcsPuOAeTFLZfHOErr-4">
          <mxGeometry relative="1" as="geometry" />
        </mxCell>
        <mxCell id="dWCcsPuOAeTFLZfHOErr-1" value="" style="html=1;verticalLabelPosition=bottom;align=center;labelBackgroundColor=#ffffff;verticalAlign=top;strokeWidth=2;strokeColor=#0080F0;shadow=0;dashed=0;shape=mxgraph.ios7.icons.video_conversation;" vertex="1" parent="WIyWlLk6GJQsqaUBKTNV-1">
          <mxGeometry x="110" y="142.5" width="30" height="15" as="geometry" />
        </mxCell>
        <mxCell id="dWCcsPuOAeTFLZfHOErr-10" value="" style="edgeStyle=orthogonalEdgeStyle;rounded=0;orthogonalLoop=1;jettySize=auto;html=1;" edge="1" parent="WIyWlLk6GJQsqaUBKTNV-1" source="dWCcsPuOAeTFLZfHOErr-3" target="dWCcsPuOAeTFLZfHOErr-9">
          <mxGeometry relative="1" as="geometry" />
        </mxCell>
        <mxCell id="dWCcsPuOAeTFLZfHOErr-14" style="edgeStyle=orthogonalEdgeStyle;rounded=0;orthogonalLoop=1;jettySize=auto;html=1;exitX=0.75;exitY=0;exitDx=0;exitDy=0;entryX=0.636;entryY=1;entryDx=0;entryDy=0;entryPerimeter=0;fillColor=#d5e8d4;strokeColor=#82b366;startArrow=classic;startFill=1;" edge="1" parent="WIyWlLk6GJQsqaUBKTNV-1" source="dWCcsPuOAeTFLZfHOErr-3" target="dWCcsPuOAeTFLZfHOErr-9">
          <mxGeometry relative="1" as="geometry" />
        </mxCell>
        <mxCell id="dWCcsPuOAeTFLZfHOErr-3" value="Server" style="rounded=1;whiteSpace=wrap;html=1;" vertex="1" parent="WIyWlLk6GJQsqaUBKTNV-1">
          <mxGeometry x="210" y="-10" width="120" height="60" as="geometry" />
        </mxCell>
        <mxCell id="dWCcsPuOAeTFLZfHOErr-7" value="" style="edgeStyle=orthogonalEdgeStyle;rounded=0;orthogonalLoop=1;jettySize=auto;html=1;" edge="1" parent="WIyWlLk6GJQsqaUBKTNV-1" source="dWCcsPuOAeTFLZfHOErr-4" target="dWCcsPuOAeTFLZfHOErr-6">
          <mxGeometry relative="1" as="geometry" />
        </mxCell>
        <mxCell id="dWCcsPuOAeTFLZfHOErr-8" value="" style="edgeStyle=orthogonalEdgeStyle;rounded=0;orthogonalLoop=1;jettySize=auto;html=1;" edge="1" parent="WIyWlLk6GJQsqaUBKTNV-1" source="dWCcsPuOAeTFLZfHOErr-4" target="dWCcsPuOAeTFLZfHOErr-3">
          <mxGeometry relative="1" as="geometry" />
        </mxCell>
        <mxCell id="dWCcsPuOAeTFLZfHOErr-4" value="ffmpeg" style="rounded=1;whiteSpace=wrap;html=1;" vertex="1" parent="WIyWlLk6GJQsqaUBKTNV-1">
          <mxGeometry x="210" y="120" width="120" height="60" as="geometry" />
        </mxCell>
        <mxCell id="dWCcsPuOAeTFLZfHOErr-13" style="edgeStyle=orthogonalEdgeStyle;rounded=0;orthogonalLoop=1;jettySize=auto;html=1;exitX=0.5;exitY=0;exitDx=0;exitDy=0;entryX=1;entryY=0.5;entryDx=0;entryDy=0;fillColor=#d5e8d4;strokeColor=#82b366;" edge="1" parent="WIyWlLk6GJQsqaUBKTNV-1" source="dWCcsPuOAeTFLZfHOErr-6" target="dWCcsPuOAeTFLZfHOErr-3">
          <mxGeometry relative="1" as="geometry" />
        </mxCell>
        <mxCell id="dWCcsPuOAeTFLZfHOErr-15" value="上传检查结果" style="edgeLabel;html=1;align=center;verticalAlign=middle;resizable=0;points=[];" vertex="1" connectable="0" parent="dWCcsPuOAeTFLZfHOErr-13">
          <mxGeometry x="-0.3217" y="1" relative="1" as="geometry">
            <mxPoint as="offset" />
          </mxGeometry>
        </mxCell>
        <mxCell id="dWCcsPuOAeTFLZfHOErr-17" style="edgeStyle=orthogonalEdgeStyle;rounded=0;orthogonalLoop=1;jettySize=auto;html=1;exitX=0.5;exitY=1;exitDx=0;exitDy=0;entryX=0.85;entryY=0;entryDx=0;entryDy=0;entryPerimeter=0;startArrow=none;startFill=0;fillColor=#d5e8d4;strokeColor=#82b366;" edge="1" parent="WIyWlLk6GJQsqaUBKTNV-1" source="dWCcsPuOAeTFLZfHOErr-6" target="dWCcsPuOAeTFLZfHOErr-16">
          <mxGeometry relative="1" as="geometry" />
        </mxCell>
        <mxCell id="dWCcsPuOAeTFLZfHOErr-6" value="AI" style="rounded=0;whiteSpace=wrap;html=1;" vertex="1" parent="WIyWlLk6GJQsqaUBKTNV-1">
          <mxGeometry x="400" y="120" width="120" height="60" as="geometry" />
        </mxCell>
        <mxCell id="dWCcsPuOAeTFLZfHOErr-9" value="UI" style="rounded=0;whiteSpace=wrap;html=1;" vertex="1" parent="WIyWlLk6GJQsqaUBKTNV-1">
          <mxGeometry x="160" y="-100" width="220" height="30" as="geometry" />
        </mxCell>
        <mxCell id="dWCcsPuOAeTFLZfHOErr-16" value="FS" style="rounded=0;whiteSpace=wrap;html=1;" vertex="1" parent="WIyWlLk6GJQsqaUBKTNV-1">
          <mxGeometry x="120" y="440" width="400" height="30" as="geometry" />
        </mxCell>
        <mxCell id="dWCcsPuOAeTFLZfHOErr-18" value="websocket" style="text;html=1;align=center;verticalAlign=middle;resizable=0;points=[];autosize=1;strokeColor=none;fillColor=none;" vertex="1" parent="WIyWlLk6GJQsqaUBKTNV-1">
          <mxGeometry x="270" y="-55" width="80" height="30" as="geometry" />
        </mxCell>
        <mxCell id="dWCcsPuOAeTFLZfHOErr-23" style="edgeStyle=orthogonalEdgeStyle;rounded=0;orthogonalLoop=1;jettySize=auto;html=1;exitX=1;exitY=0.5;exitDx=0;exitDy=0;entryX=0.5;entryY=0;entryDx=0;entryDy=0;startArrow=none;startFill=0;elbow=vertical;fillColor=#d5e8d4;strokeColor=#82b366;" edge="1" parent="WIyWlLk6GJQsqaUBKTNV-1" source="dWCcsPuOAeTFLZfHOErr-9" target="dWCcsPuOAeTFLZfHOErr-9">
          <mxGeometry relative="1" as="geometry">
            <Array as="points">
              <mxPoint x="400" y="-85" />
              <mxPoint x="400" y="-130" />
              <mxPoint x="270" y="-130" />
            </Array>
          </mxGeometry>
        </mxCell>
        <mxCell id="dWCcsPuOAeTFLZfHOErr-24" value="缓制检查结果" style="edgeLabel;html=1;align=center;verticalAlign=middle;resizable=0;points=[];" vertex="1" connectable="0" parent="dWCcsPuOAeTFLZfHOErr-23">
          <mxGeometry x="-0.2178" y="5" relative="1" as="geometry">
            <mxPoint as="offset" />
          </mxGeometry>
        </mxCell>
        <mxCell id="dWCcsPuOAeTFLZfHOErr-27" style="edgeStyle=orthogonalEdgeStyle;rounded=0;orthogonalLoop=1;jettySize=auto;html=1;exitX=1;exitY=0.5;exitDx=0;exitDy=0;entryX=0;entryY=0.5;entryDx=0;entryDy=0;startArrow=none;startFill=0;elbow=vertical;" edge="1" parent="WIyWlLk6GJQsqaUBKTNV-1" source="dWCcsPuOAeTFLZfHOErr-25" target="dWCcsPuOAeTFLZfHOErr-26">
          <mxGeometry relative="1" as="geometry" />
        </mxCell>
        <mxCell id="dWCcsPuOAeTFLZfHOErr-25" value="" style="aspect=fixed;perimeter=ellipsePerimeter;html=1;align=center;shadow=0;dashed=0;spacingTop=3;image;image=img/lib/active_directory/cd_dvd.svg;" vertex="1" parent="WIyWlLk6GJQsqaUBKTNV-1">
          <mxGeometry y="260" width="50" height="50" as="geometry" />
        </mxCell>
        <mxCell id="dWCcsPuOAeTFLZfHOErr-29" style="edgeStyle=orthogonalEdgeStyle;rounded=0;orthogonalLoop=1;jettySize=auto;html=1;exitX=0.5;exitY=0;exitDx=0;exitDy=0;entryX=0.5;entryY=1;entryDx=0;entryDy=0;startArrow=none;startFill=0;elbow=vertical;" edge="1" parent="WIyWlLk6GJQsqaUBKTNV-1" source="dWCcsPuOAeTFLZfHOErr-26" target="dWCcsPuOAeTFLZfHOErr-4">
          <mxGeometry relative="1" as="geometry" />
        </mxCell>
        <mxCell id="dWCcsPuOAeTFLZfHOErr-26" value="VLC" style="rounded=1;whiteSpace=wrap;html=1;" vertex="1" parent="WIyWlLk6GJQsqaUBKTNV-1">
          <mxGeometry x="210" y="260" width="120" height="50" as="geometry" />
        </mxCell>
      </root>
    </mxGraphModel>
  </diagram>
</mxfile>
